<svg width="27" height="27" viewBox="0 0 27 27" fill="none" xmlns="http://www.w3.org/2000/svg">
<g clip-path="url(#clip0_9_24)">
<path d="M23.625 1.6875C24.0726 1.6875 24.5018 1.86529 24.8182 2.18176C25.1347 2.49822 25.3125 2.92745 25.3125 3.375V23.625C25.3125 24.0726 25.1347 24.5018 24.8182 24.8182C24.5018 25.1347 24.0726 25.3125 23.625 25.3125H3.375C2.92745 25.3125 2.49822 25.1347 2.18176 24.8182C1.86529 24.5018 1.6875 24.0726 1.6875 23.625V3.375C1.6875 2.92745 1.86529 2.49822 2.18176 2.18176C2.49822 1.86529 2.92745 1.6875 3.375 1.6875H23.625ZM3.375 0C2.47989 0 1.62145 0.355579 0.988515 0.988515C0.355579 1.62145 0 2.47989 0 3.375L0 23.625C0 24.5201 0.355579 25.3785 0.988515 26.0115C1.62145 26.6444 2.47989 27 3.375 27H23.625C24.5201 27 25.3785 26.6444 26.0115 26.0115C26.6444 25.3785 27 24.5201 27 23.625V3.375C27 2.47989 26.6444 1.62145 26.0115 0.988515C25.3785 0.355579 24.5201 0 23.625 0L3.375 0Z" fill="white"/>
<path d="M18.5119 8.38692C18.748 8.15282 19.0669 8.02106 19.3994 8.02015C19.7319 8.01923 20.0515 8.14922 20.2889 8.38202C20.5264 8.61481 20.6627 8.93171 20.6683 9.2642C20.674 9.59668 20.5486 9.91804 20.3192 10.1588L13.5827 18.5794C13.4669 18.7041 13.3272 18.8042 13.1718 18.8737C13.0165 18.9431 12.8488 18.9806 12.6786 18.9837C12.5085 18.9869 12.3395 18.9557 12.1817 18.892C12.0239 18.8283 11.8805 18.7335 11.7602 18.6132L7.29676 14.148C7.17241 14.0322 7.07268 13.8925 7.0035 13.7372C6.93433 13.582 6.89713 13.4144 6.89413 13.2444C6.89113 13.0745 6.9224 12.9057 6.98605 12.7481C7.0497 12.5905 7.14445 12.4474 7.26463 12.3272C7.38481 12.207 7.52797 12.1122 7.68556 12.0486C7.84315 11.9849 8.01195 11.9537 8.18189 11.9567C8.35182 11.9597 8.51942 11.9969 8.67467 12.066C8.82991 12.1352 8.96964 12.2349 9.08551 12.3593L12.6191 15.8912L18.4798 8.42405C18.4903 8.41097 18.4999 8.39857 18.5119 8.38692Z" fill="white"/>
</g>
<defs>
<clipPath id="clip0_9_24">
<rect width="27" height="27" fill="white"/>
</clipPath>
</defs>
</svg>
