<svg width="33" height="33" viewBox="0 0 33 33" fill="none" xmlns="http://www.w3.org/2000/svg">
<path d="M4.125 6.875C4.125 6.14565 4.41473 5.44618 4.93046 4.93046C5.44618 4.41473 6.14565 4.125 6.875 4.125H26.125C26.8543 4.125 27.5538 4.41473 28.0695 4.93046C28.5853 5.44618 28.875 6.14565 28.875 6.875V26.125C28.875 26.8543 28.5853 27.5538 28.0695 28.0695C27.5538 28.5853 26.8543 28.875 26.125 28.875H6.875C6.14565 28.875 5.44618 28.5853 4.93046 28.0695C4.41473 27.5538 4.125 26.8543 4.125 26.125V6.875Z" stroke="white" stroke-width="2" stroke-linecap="round" stroke-linejoin="round"/>
<path d="M13.75 22V13.75C13.75 13.0207 14.0397 12.3212 14.5555 11.8055C15.0712 11.2897 15.7707 11 16.5 11C17.2293 11 17.9288 11.2897 18.4445 11.8055C18.9603 12.3212 19.25 13.0207 19.25 13.75V22M13.75 17.875H19.25" stroke="white" stroke-width="2" stroke-linecap="round" stroke-linejoin="round"/>
</svg>
