<svg width="16" height="16" viewBox="0 0 16 16" fill="none" xmlns="http://www.w3.org/2000/svg">
<path fill-rule="evenodd" clip-rule="evenodd" d="M11.957 5.99999H12.007C12.4002 6.00019 12.7894 6.07793 13.1525 6.22876C13.5156 6.37959 13.8454 6.60055 14.123 6.87899C14.6847 7.44196 15.0001 8.20474 15.0001 8.99999C15.0001 9.79524 14.6847 10.558 14.123 11.121C13.8453 11.3996 13.5153 11.6206 13.1521 11.7714C12.7888 11.9223 12.3993 11.9999 12.006 12V11.987L12 12H4.52299C4.02768 12.0044 3.5371 11.9033 3.08395 11.7033C2.6308 11.5033 2.22547 11.209 1.89499 10.84C1.48025 10.3777 1.19591 9.81344 1.07112 9.20505C0.946327 8.59665 0.985576 7.96601 1.18484 7.37778C1.3841 6.78956 1.73622 6.2649 2.20508 5.85761C2.67394 5.45032 3.24268 5.17504 3.85299 5.05999C4.33955 4.96819 4.84015 4.98183 5.32099 5.09999C5.62408 4.40601 6.14491 3.82959 6.80471 3.45792C7.46451 3.08625 8.2274 2.93955 8.97799 3.03999C9.72922 3.14145 10.4267 3.4855 10.9645 4.01981C11.5022 4.55411 11.8507 5.24943 11.957 5.99999ZM4.99999 11H12.01C12.2722 10.9997 12.5317 10.9478 12.7738 10.8471C13.0159 10.7464 13.2358 10.5989 13.4208 10.4131C13.6058 10.2274 13.7524 10.0069 13.8521 9.76444C13.9518 9.52196 14.0028 9.26218 14.002 8.99999C14.0015 8.47041 13.7911 7.96262 13.417 7.58777C13.0429 7.21293 12.5356 7.00158 12.006 6.99999H11.092L10.969 6.14299C10.8939 5.60607 10.6457 5.1083 10.262 4.72531C9.87828 4.34232 9.38005 4.09502 8.84299 4.02099C8.30577 3.94782 7.75937 4.05285 7.28757 4.32C6.81577 4.58715 6.44461 5.00166 6.23099 5.49999L5.89799 6.26199L5.08899 6.07299C4.90374 6.02705 4.71383 6.00255 4.52299 5.99999C3.86099 5.99999 3.22599 6.26299 2.75899 6.73199C2.41096 7.08194 2.17415 7.52697 2.07834 8.01112C1.98253 8.49528 2.032 8.99696 2.22052 9.45308C2.40904 9.90921 2.7282 10.2994 3.13787 10.5747C3.54755 10.8499 4.02945 10.9979 4.52299 11H4.99999Z" fill="white"/>
</svg>
