<svg width="16" height="16" viewBox="0 0 16 16" fill="none" xmlns="http://www.w3.org/2000/svg">
<path d="M2 14V10.6667H4.66667L7.33333 8V5.86667C6.93333 5.72222 6.61111 5.48044 6.36667 5.14133C6.12222 4.80222 6 4.42178 6 4C6 3.44444 6.19444 2.97222 6.58333 2.58333C6.97222 2.19444 7.44444 2 8 2C8.55556 2 9.02778 2.19444 9.41667 2.58333C9.80556 2.97222 10 3.44444 10 4C10 4.42222 9.87778 4.80289 9.63333 5.142C9.38889 5.48111 9.06667 5.72267 8.66667 5.86667V8L11.3333 10.6667H14V14H10.6667V11.9667L8 9.3L5.33333 11.9667V14H2Z" fill="white"/>
</svg>
