<svg width="33" height="33" viewBox="0 0 33 33" fill="none" xmlns="http://www.w3.org/2000/svg">
<path d="M2.75 16.7805C2.75 13.6331 2.75 12.0601 3.465 10.7566C4.17725 9.45175 5.48212 8.64325 8.0905 7.0235L10.8405 5.31713C13.5974 3.60525 14.9765 2.75 16.5 2.75C18.0235 2.75 19.4012 3.60525 22.1595 5.31713L24.9095 7.0235C27.5179 8.64325 28.8228 9.45175 29.5364 10.7566C30.25 12.0601 30.25 13.6331 30.25 16.7791V18.8719C30.25 24.2344 30.25 26.917 28.6385 28.5835C27.0284 30.25 24.4351 30.25 19.25 30.25H13.75C8.56488 30.25 5.97162 30.25 4.3615 28.5835C2.75 26.917 2.75 24.2358 2.75 18.8719V16.7805Z" stroke="#FFFEFE" stroke-width="1.5"/>
<path d="M16.5 20.625V24.75" stroke="#FFFEFE" stroke-width="1.5" stroke-linecap="round"/>
</svg>
